<?xml version="1.0" encoding="utf-8"?>
<!-- Generator: Adobe Illustrator 16.0.0, SVG Export Plug-In . SVG Version: 6.00 Build 0)  -->
<!DOCTYPE svg PUBLIC "-//W3C//DTD SVG 1.1//EN" "http://www.w3.org/Graphics/SVG/1.1/DTD/svg11.dtd">
<svg version="1.1" id="Layer_1" xmlns="http://www.w3.org/2000/svg" xmlns:xlink="http://www.w3.org/1999/xlink" x="0px" y="0px"
	 width="162px" height="57px" viewBox="0 0 162 57" enable-background="new 0 0 162 57" xml:space="preserve">
<polygon fill="#272724" points="1.117,26.856 20.161,26.856 20.161,20.431 10.096,20.431 10.096,1.239 1.117,1.239 "/>
<rect x="27.89" y="1.24" fill="#272724" width="8.977" height="25.617"/>
<polygon fill="#272724" points="74.199,1.231 65.243,1.231 58.862,15.583 52.141,1.231 43.414,1.231 55.733,26.856 62.439,26.856 
	"/>
<rect x="80.915" y="1.24" fill="#272724" width="8.978" height="25.617"/>
<polygon fill="#272724" points="99.744,26.856 108.834,26.856 108.346,13.71 121.303,26.856 128.962,26.856 128.962,1.239 
	119.877,1.239 120.363,14.385 107.404,1.239 99.744,1.239 "/>
<path fill="#272724" d="M161,15.46h-6.975l0.099,5.418c-5.563,0.791-9.096-1.99-9.096-6.612c0-4.36,3.157-7.291,7.854-7.291
	c2.407,0,4.998,0.75,7.628,2.179V2.729C157.694,1.6,154.612,1,151.569,1c-9.207,0-15.521,5.483-15.521,13.454
	c0,5.595,3.87,12.888,14.88,12.888c3.082,0,7.064-0.488,10.071-1.201V15.46z"/>
<rect x="1.036" y="35.608" fill="#272724" width="159.69" height="1.846"/>
<rect x="158.042" y="45.928" fill="#272724" width="2.646" height="10.619"/>
<polygon fill="#272724" points="134.742,45.927 132.096,45.927 132.096,52.421 126.428,45.927 123.998,45.927 123.998,56.546 
	126.646,56.546 126.646,49.743 132.515,56.546 134.742,56.546 "/>
<polygon fill="#272724" points="70.273,45.927 67.426,45.927 64.763,51.983 61.96,45.927 59.081,45.927 64.217,56.688 65.37,56.688 
	"/>
<rect x="34.415" y="45.928" fill="#272724" width="2.646" height="10.619"/>
<path fill="#272724" d="M3.647,47.874h1.697c2.508,0,3.488,1.542,3.488,3.362c0,1.558-0.794,3.364-3.457,3.364H3.647V47.874z
	 M1,45.927v10.619h4.392c4.233,0,6.162-2.24,6.162-5.293c0-2.91-1.991-5.326-5.868-5.326H1z"/>
<path fill="#272724" d="M97.439,52.593h-3.269l1.557-4.125L97.439,52.593z M97.223,45.927h-3.068l-4.281,10.619h2.805l0.793-2.102
	h4.748l0.871,2.102h2.85L97.223,45.927z"/>
</svg>
